<?xml version="1.0" standalone="no"?>
<!DOCTYPE svg PUBLIC "-//W3C//DTD SVG 20010904//EN"
 "http://www.w3.org/TR/2001/REC-SVG-20010904/DTD/svg10.dtd">
<svg version="1.0" xmlns="http://www.w3.org/2000/svg"
 width="431.000000pt" height="326.000000pt" viewBox="0 0 431.000000 326.000000"
 preserveAspectRatio="xMidYMid meet">
<metadata>
Created by potrace 1.15, written by Peter Selinger 2001-2017
</metadata>
<g transform="translate(0.000000,326.000000) scale(0.100000,-0.100000)"
fill="#000000" stroke="none">
<path d="M957 3244 c-485 -87 -858 -467 -944 -959 -23 -135 -14 -358 21 -490
53 -202 177 -408 330 -553 208 -197 508 -321 779 -322 67 0 97 22 97 70 0 52
-26 66 -131 75 -458 35 -830 348 -941 792 -33 132 -31 350 4 484 79 294 264
527 528 663 396 204 872 131 1191 -185 81 -80 173 -210 215 -305 146 -330 110
-708 -96 -1010 -27 -40 -50 -85 -50 -99 0 -59 85 -88 127 -42 57 61 146 231
484 926 395 810 396 812 476 827 49 9 103 -10 141 -49 28 -29 435 -898 912
-1944 l29 -63 -307 0 -308 0 -59 121 c-33 66 -68 125 -77 130 -9 5 -144 9
-300 9 -220 -1 -287 -4 -301 -14 -9 -7 -42 -66 -72 -130 l-56 -116 -223 0
c-211 0 -224 -1 -241 -20 -23 -26 -23 -74 0 -100 17 -19 30 -20 280 -20 307 0
273 -15 350 152 l50 107 215 1 216 0 49 -106 c26 -58 57 -116 67 -130 l19 -24
418 0 c406 0 418 1 439 20 12 12 22 33 22 48 0 30 -938 2076 -980 2137 -62 90
-132 128 -242 133 -66 4 -85 0 -132 -21 -107 -49 -119 -68 -376 -597 -203
-418 -235 -479 -241 -454 -3 16 -12 65 -18 109 -36 236 -162 469 -348 646
-170 162 -373 264 -607 304 -109 18 -304 18 -409 -1z"/>
<path d="M1302 1774 c-41 -28 -30 -66 94 -320 64 -132 145 -298 180 -371 40
-85 72 -138 88 -149 46 -29 106 2 106 56 0 17 -50 131 -116 267 -64 131 -143
294 -176 363 -33 69 -70 135 -81 148 -24 26 -63 29 -95 6z"/>
<path d="M2945 1766 c-30 -31 -32 -55 -4 -90 20 -25 23 -26 139 -26 128 0 143
6 156 57 5 17 0 33 -13 51 -20 26 -24 27 -137 30 -112 3 -117 2 -141 -22z"/>
<path d="M128 390 c-158 -47 -173 -289 -23 -367 79 -42 235 8 235 75 0 5 -13
15 -30 22 -27 11 -32 10 -61 -14 -78 -66 -181 5 -166 115 12 91 111 133 170
73 26 -26 26 -26 56 -8 38 22 38 28 3 64 -43 43 -120 60 -184 40z"/>
<path d="M575 382 c-137 -66 -155 -254 -32 -343 54 -39 140 -41 201 -5 118 69
121 256 6 332 -53 35 -121 41 -175 16z m140 -86 c53 -53 50 -143 -6 -190 -84
-71 -196 26 -159 139 24 73 115 101 165 51z"/>
<path d="M990 205 l0 -195 40 0 39 0 3 112 3 112 89 -112 c82 -102 92 -112
123 -112 l33 0 0 190 0 190 -40 0 -40 0 0 -116 0 -117 -96 122 c-83 106 -99
121 -125 121 l-29 0 0 -195z"/>
<path d="M1575 393 c-82 -21 -121 -127 -68 -185 8 -9 38 -24 67 -33 85 -27
104 -36 110 -52 17 -44 -58 -57 -134 -22 l-44 20 -18 -23 c-25 -32 -22 -45 12
-63 78 -40 188 -39 240 3 44 36 42 135 -4 165 -13 9 -50 23 -82 33 -32 9 -65
21 -71 26 -21 17 -15 48 11 58 25 9 92 -3 111 -21 5 -5 12 -9 17 -9 11 0 40
59 33 69 -16 26 -127 47 -180 34z"/>
<path d="M1920 268 c0 -153 15 -203 72 -238 27 -17 46 -20 106 -18 70 3 76 5
107 40 45 48 55 91 55 231 l0 117 -40 0 -40 0 0 -107 c0 -60 -5 -125 -10 -145
-19 -68 -85 -89 -137 -44 -28 24 -28 25 -31 160 l-4 136 -39 0 -39 0 0 -132z"/>
<path d="M2420 205 l0 -195 140 0 140 0 0 35 0 35 -95 0 -95 0 0 160 0 160
-45 0 -45 0 0 -195z"/>
<path d="M2740 360 l0 -40 60 0 60 0 0 -155 0 -155 40 0 40 0 0 155 0 155 65
0 65 0 0 40 0 40 -165 0 -165 0 0 -40z"/>
<path d="M3207 393 c-4 -3 -7 -91 -7 -195 l0 -188 45 0 45 0 0 195 0 195 -38
0 c-21 0 -42 -3 -45 -7z"/>
<path d="M3460 205 l0 -195 40 0 40 0 0 116 0 117 93 -117 c83 -105 95 -116
125 -116 l32 0 0 190 0 190 -40 0 -39 0 -3 -112 -3 -112 -93 117 c-81 101 -98
117 -123 117 l-29 0 0 -195z"/>
<path d="M4067 386 c-49 -18 -74 -41 -100 -91 -47 -92 -14 -215 71 -263 47
-26 119 -29 162 -7 27 14 30 14 30 0 0 -11 10 -15 35 -15 l35 0 0 100 0 100
-75 0 -75 0 0 -30 c0 -28 2 -30 40 -30 50 0 53 -20 6 -49 -50 -32 -92 -27
-132 13 -29 29 -34 41 -34 80 0 53 20 100 49 116 35 18 87 12 120 -16 32 -26
52 -24 80 9 9 12 6 21 -19 46 -49 48 -121 62 -193 37z"/>
</g>
</svg>
